# This file uses centimeters as units for non-parametric coordinates.

mtllib sphere.mtl
v 0.000000 -9.238795 -3.826834
v -2.705981 -9.238795 -2.705981
v -3.826834 -9.238795 0.000000
v -2.705981 -9.238795 2.705981
v 0.000000 -9.238795 3.826834
v 0.000000 -7.071068 -7.071067
v -5.000000 -7.071068 -5.000000
v -7.071067 -7.071068 0.000000
v -5.000000 -7.071068 5.000000
v 0.000000 -7.071068 7.071067
v 0.000000 -3.826834 -9.238794
v -6.532814 -3.826834 -6.532814
v -9.238794 -3.826834 0.000000
v -6.532814 -3.826834 6.532814
v 0.000000 -3.826834 9.238794
v 0.000000 0.000000 -9.999999
v -7.071067 0.000000 -7.071067
v -9.999999 0.000000 0.000000
v -7.071067 0.000000 7.071067
v 0.000000 0.000000 9.999999
v 0.000000 3.826834 -9.238794
v -6.532814 3.826834 -6.532814
v -9.238794 3.826834 0.000000
v -6.532814 3.826834 6.532814
v 0.000000 3.826834 9.238794
v 0.000000 7.071068 -7.071067
v -5.000000 7.071068 -5.000000
v -7.071067 7.071068 0.000000
v -5.000000 7.071068 5.000000
v 0.000000 7.071068 7.071067
v 0.000000 9.238795 -3.826834
v -2.705981 9.238795 -2.705981
v -3.826834 9.238795 0.000000
v -2.705981 9.238795 2.705981
v 0.000000 9.238795 3.826834
v 0.000000 -10.000000 0.000000
v 0.000000 10.000000 0.000000
vt 0.125000 0.125000
vt 0.250000 0.125000
vt 0.375000 0.125000
vt 0.500000 0.125000
vt 0.625000 0.125000
vt 0.125000 0.250000
vt 0.250000 0.250000
vt 0.375000 0.250000
vt 0.500000 0.250000
vt 0.625000 0.250000
vt 0.125000 0.375000
vt 0.250000 0.375000
vt 0.375000 0.375000
vt 0.500000 0.375000
vt 0.625000 0.375000
vt 0.125000 0.500000
vt 0.250000 0.500000
vt 0.375000 0.500000
vt 0.500000 0.500000
vt 0.625000 0.500000
vt 0.125000 0.625000
vt 0.250000 0.625000
vt 0.375000 0.625000
vt 0.500000 0.625000
vt 0.625000 0.625000
vt 0.125000 0.750000
vt 0.250000 0.750000
vt 0.375000 0.750000
vt 0.500000 0.750000
vt 0.625000 0.750000
vt 0.125000 0.875000
vt 0.250000 0.875000
vt 0.375000 0.875000
vt 0.500000 0.875000
vt 0.625000 0.875000
vt 0.187500 0.000000
vt 0.312500 0.000000
vt 0.437500 0.000000
vt 0.562500 0.000000
vt 0.187500 1.000000
vt 0.312500 1.000000
vt 0.437500 1.000000
vt 0.562500 1.000000
vn -0.224263 -0.810291 -0.541419
vn -0.224263 -0.810291 -0.541419
vn -0.224263 -0.810291 -0.541419
vn -0.224263 -0.810291 -0.541420
vn -0.541419 -0.810291 -0.224263
vn -0.541419 -0.810291 -0.224263
vn -0.541419 -0.810291 -0.224263
vn -0.541419 -0.810291 -0.224263
vn -0.541419 -0.810291 0.224263
vn -0.541419 -0.810291 0.224263
vn -0.541419 -0.810291 0.224263
vn -0.541419 -0.810291 0.224264
vn -0.224263 -0.810291 0.541419
vn -0.224263 -0.810291 0.541419
vn -0.224263 -0.810291 0.541419
vn -0.224263 -0.810291 0.541419
vn -0.325634 -0.525289 -0.786151
vn -0.325634 -0.525289 -0.786151
vn -0.325634 -0.525289 -0.786151
vn -0.325634 -0.525289 -0.786151
vn -0.786151 -0.525289 -0.325634
vn -0.786151 -0.525289 -0.325634
vn -0.786151 -0.525289 -0.325634
vn -0.786151 -0.525289 -0.325634
vn -0.786151 -0.525289 0.325634
vn -0.786151 -0.525289 0.325634
vn -0.786151 -0.525289 0.325634
vn -0.786151 -0.525289 0.325634
vn -0.325634 -0.525289 0.786151
vn -0.325634 -0.525289 0.786151
vn -0.325634 -0.525289 0.786151
vn -0.325634 -0.525289 0.786151
vn -0.376381 -0.180744 -0.908663
vn -0.376381 -0.180744 -0.908663
vn -0.376381 -0.180744 -0.908663
vn -0.376381 -0.180744 -0.908663
vn -0.908663 -0.180744 -0.376381
vn -0.908663 -0.180744 -0.376381
vn -0.908663 -0.180744 -0.376381
vn -0.908663 -0.180745 -0.376381
vn -0.908663 -0.180745 0.376381
vn -0.908663 -0.180744 0.376381
vn -0.908663 -0.180744 0.376381
vn -0.908663 -0.180744 0.376381
vn -0.376381 -0.180744 0.908663
vn -0.376381 -0.180744 0.908663
vn -0.376381 -0.180744 0.908663
vn -0.376381 -0.180744 0.908663
vn -0.376381 0.180744 -0.908663
vn -0.376381 0.180744 -0.908663
vn -0.376381 0.180744 -0.908663
vn -0.376381 0.180744 -0.908663
vn -0.908663 0.180744 -0.376381
vn -0.908663 0.180744 -0.376381
vn -0.908663 0.180744 -0.376381
vn -0.908663 0.180745 -0.376381
vn -0.908663 0.180745 0.376381
vn -0.908663 0.180744 0.376381
vn -0.908663 0.180744 0.376381
vn -0.908663 0.180744 0.376381
vn -0.376381 0.180744 0.908663
vn -0.376381 0.180744 0.908663
vn -0.376381 0.180744 0.908663
vn -0.376381 0.180744 0.908663
vn -0.325634 0.525289 -0.786151
vn -0.325634 0.525289 -0.786151
vn -0.325634 0.525289 -0.786151
vn -0.325634 0.525289 -0.786151
vn -0.786151 0.525289 -0.325634
vn -0.786151 0.525289 -0.325634
vn -0.786151 0.525289 -0.325634
vn -0.786151 0.525289 -0.325634
vn -0.786151 0.525289 0.325634
vn -0.786151 0.525289 0.325634
vn -0.786151 0.525289 0.325634
vn -0.786151 0.525289 0.325634
vn -0.325634 0.525289 0.786151
vn -0.325634 0.525289 0.786151
vn -0.325634 0.525289 0.786151
vn -0.325634 0.525289 0.786151
vn -0.224263 0.810291 -0.541419
vn -0.224263 0.810291 -0.541419
vn -0.224263 0.810291 -0.541419
vn -0.224263 0.810291 -0.541419
vn -0.541419 0.810291 -0.224264
vn -0.541419 0.810291 -0.224263
vn -0.541419 0.810291 -0.224263
vn -0.541419 0.810291 -0.224263
vn -0.541419 0.810291 0.224263
vn -0.541419 0.810291 0.224263
vn -0.541419 0.810291 0.224263
vn -0.541419 0.810291 0.224263
vn -0.224263 0.810291 0.541419
vn -0.224263 0.810291 0.541419
vn -0.224263 0.810291 0.541419
vn -0.224263 0.810291 0.541419
vn -0.080546 -0.977599 -0.194457
vn -0.080546 -0.977599 -0.194457
vn -0.080546 -0.977599 -0.194457
vn -0.194456 -0.977599 -0.080547
vn -0.194456 -0.977599 -0.080547
vn -0.194456 -0.977599 -0.080547
vn -0.194456 -0.977599 0.080546
vn -0.194456 -0.977599 0.080546
vn -0.194456 -0.977599 0.080546
vn -0.080546 -0.977599 0.194457
vn -0.080547 -0.977599 0.194457
vn -0.080546 -0.977599 0.194457
vn -0.080546 0.977599 -0.194457
vn -0.080546 0.977599 -0.194457
vn -0.080546 0.977599 -0.194457
vn -0.194456 0.977599 -0.080546
vn -0.194456 0.977599 -0.080546
vn -0.194456 0.977599 -0.080546
vn -0.194456 0.977599 0.080547
vn -0.194456 0.977599 0.080547
vn -0.194456 0.977599 0.080547
vn -0.080547 0.977599 0.194457
vn -0.080546 0.977599 0.194457
vn -0.080546 0.977599 0.194457
usemtl lambert2SG
f 1/1/1 2/2/2 6/6/3
f 6/6/3 2/2/2 7/7/4
f 2/2/5 3/3/6 7/7/7
f 7/7/7 3/3/6 8/8/8
f 3/3/9 4/4/10 8/8/11
f 8/8/11 4/4/10 9/9/12
f 4/4/13 5/5/14 9/9/15
f 9/9/15 5/5/14 10/10/16
f 6/6/17 7/7/18 11/11/19
f 11/11/19 7/7/18 12/12/20
f 7/7/21 8/8/22 12/12/23
f 12/12/23 8/8/22 13/13/24
f 8/8/25 9/9/26 13/13/27
f 13/13/27 9/9/26 14/14/28
f 9/9/29 10/10/30 14/14/31
f 14/14/31 10/10/30 15/15/32
f 11/11/33 12/12/34 16/16/35
f 16/16/35 12/12/34 17/17/36
f 12/12/37 13/13/38 17/17/39
f 17/17/39 13/13/38 18/18/40
f 13/13/41 14/14/42 18/18/43
f 18/18/43 14/14/42 19/19/44
f 14/14/45 15/15/46 19/19/47
f 19/19/47 15/15/46 20/20/48
usemtl lambert3SG
f 16/16/49 17/17/50 21/21/51
f 21/21/51 17/17/50 22/22/52
f 17/17/53 18/18/54 22/22/55
f 22/22/55 18/18/54 23/23/56
f 18/18/57 19/19/58 23/23/59
f 23/23/59 19/19/58 24/24/60
f 19/19/61 20/20/62 24/24/63
f 24/24/63 20/20/62 25/25/64
f 21/21/65 22/22/66 26/26/67
f 26/26/67 22/22/66 27/27/68
f 22/22/69 23/23/70 27/27/71
f 27/27/71 23/23/70 28/28/72
f 23/23/73 24/24/74 28/28/75
f 28/28/75 24/24/74 29/29/76
f 24/24/77 25/25/78 29/29/79
f 29/29/79 25/25/78 30/30/80
f 26/26/81 27/27/82 31/31/83
f 31/31/83 27/27/82 32/32/84
f 27/27/85 28/28/86 32/32/87
f 32/32/87 28/28/86 33/33/88
f 28/28/89 29/29/90 33/33/91
f 33/33/91 29/29/90 34/34/92
f 29/29/93 30/30/94 34/34/95
f 34/34/95 30/30/94 35/35/96
usemtl lambert2SG
f 2/2/97 1/1/98 36/36/99
f 3/3/100 2/2/101 36/37/102
f 4/4/103 3/3/104 36/38/105
f 5/5/106 4/4/107 36/39/108
usemtl lambert3SG
f 31/31/109 32/32/110 37/40/111
f 32/32/112 33/33/113 37/41/114
f 33/33/115 34/34/116 37/42/117
f 34/34/118 35/35/119 37/43/120
v 0.000000 10.854469 -3.826834
v -2.705981 10.854469 -2.705981
v -3.826834 10.854469 0.000000
v -2.705981 10.854469 2.705981
v 0.000000 10.854469 3.826834
v 0.000000 13.022196 -7.071067
v -5.000000 13.022196 -5.000000
v -7.071067 13.022196 0.000000
v -5.000000 13.022196 5.000000
v 0.000000 13.022196 7.071067
v 0.000000 16.266430 -9.238794
v -6.532814 16.266430 -6.532814
v -9.238794 16.266430 0.000000
v -6.532814 16.266430 6.532814
v 0.000000 16.266430 9.238794
v 0.000000 20.093264 -9.999999
v -7.071067 20.093264 -7.071067
v -9.999999 20.093264 0.000000
v -7.071067 20.093264 7.071067
v 0.000000 20.093264 9.999999
v 0.000000 23.920098 -9.238794
v -6.532814 23.920098 -6.532814
v -9.238794 23.920098 0.000000
v -6.532814 23.920098 6.532814
v 0.000000 23.920098 9.238794
v 0.000000 27.164332 -7.071067
v -5.000000 27.164332 -5.000000
v -7.071067 27.164332 0.000000
v -5.000000 27.164332 5.000000
v 0.000000 27.164332 7.071067
v 0.000000 29.332059 -3.826834
v -2.705981 29.332059 -2.705981
v -3.826834 29.332059 0.000000
v -2.705981 29.332059 2.705981
v 0.000000 29.332059 3.826834
v 0.000000 10.093264 0.000000
v 0.000000 30.093264 0.000000
vt 0.125000 0.125000
vt 0.250000 0.125000
vt 0.375000 0.125000
vt 0.500000 0.125000
vt 0.625000 0.125000
vt 0.125000 0.250000
vt 0.250000 0.250000
vt 0.375000 0.250000
vt 0.500000 0.250000
vt 0.625000 0.250000
vt 0.125000 0.375000
vt 0.250000 0.375000
vt 0.375000 0.375000
vt 0.500000 0.375000
vt 0.625000 0.375000
vt 0.125000 0.500000
vt 0.250000 0.500000
vt 0.375000 0.500000
vt 0.500000 0.500000
vt 0.625000 0.500000
vt 0.125000 0.625000
vt 0.250000 0.625000
vt 0.375000 0.625000
vt 0.500000 0.625000
vt 0.625000 0.625000
vt 0.125000 0.750000
vt 0.250000 0.750000
vt 0.375000 0.750000
vt 0.500000 0.750000
vt 0.625000 0.750000
vt 0.125000 0.875000
vt 0.250000 0.875000
vt 0.375000 0.875000
vt 0.500000 0.875000
vt 0.625000 0.875000
vt 0.187500 0.000000
vt 0.312500 0.000000
vt 0.437500 0.000000
vt 0.562500 0.000000
vt 0.187500 1.000000
vt 0.312500 1.000000
vt 0.437500 1.000000
vt 0.562500 1.000000
vn -0.224263 -0.810291 -0.541419
vn -0.224263 -0.810291 -0.541419
vn -0.224263 -0.810291 -0.541419
vn -0.224263 -0.810291 -0.541420
vn -0.541419 -0.810291 -0.224263
vn -0.541419 -0.810291 -0.224263
vn -0.541419 -0.810291 -0.224263
vn -0.541419 -0.810291 -0.224263
vn -0.541419 -0.810291 0.224263
vn -0.541419 -0.810291 0.224263
vn -0.541419 -0.810291 0.224263
vn -0.541419 -0.810291 0.224264
vn -0.224263 -0.810291 0.541419
vn -0.224263 -0.810291 0.541419
vn -0.224263 -0.810291 0.541419
vn -0.224263 -0.810291 0.541419
vn -0.325634 -0.525289 -0.786151
vn -0.325634 -0.525289 -0.786151
vn -0.325634 -0.525289 -0.786151
vn -0.325634 -0.525289 -0.786151
vn -0.786151 -0.525289 -0.325634
vn -0.786151 -0.525289 -0.325634
vn -0.786151 -0.525289 -0.325634
vn -0.786151 -0.525289 -0.325634
vn -0.786151 -0.525289 0.325634
vn -0.786151 -0.525289 0.325634
vn -0.786151 -0.525289 0.325634
vn -0.786151 -0.525289 0.325634
vn -0.325634 -0.525289 0.786151
vn -0.325634 -0.525289 0.786151
vn -0.325634 -0.525289 0.786151
vn -0.325634 -0.525289 0.786151
vn -0.376381 -0.180744 -0.908663
vn -0.376381 -0.180744 -0.908663
vn -0.376381 -0.180744 -0.908663
vn -0.376381 -0.180744 -0.908663
vn -0.908663 -0.180744 -0.376381
vn -0.908663 -0.180744 -0.376381
vn -0.908663 -0.180744 -0.376381
vn -0.908663 -0.180745 -0.376381
vn -0.908663 -0.180745 0.376381
vn -0.908663 -0.180744 0.376381
vn -0.908663 -0.180744 0.376381
vn -0.908663 -0.180744 0.376381
vn -0.376381 -0.180744 0.908663
vn -0.376381 -0.180744 0.908663
vn -0.376381 -0.180744 0.908663
vn -0.376381 -0.180744 0.908663
vn -0.376381 0.180744 -0.908663
vn -0.376381 0.180744 -0.908663
vn -0.376381 0.180744 -0.908663
vn -0.376381 0.180744 -0.908663
vn -0.908663 0.180744 -0.376381
vn -0.908663 0.180744 -0.376381
vn -0.908663 0.180744 -0.376381
vn -0.908663 0.180745 -0.376381
vn -0.908663 0.180745 0.376381
vn -0.908663 0.180744 0.376381
vn -0.908663 0.180744 0.376381
vn -0.908663 0.180744 0.376381
vn -0.376381 0.180744 0.908663
vn -0.376381 0.180744 0.908663
vn -0.376381 0.180744 0.908663
vn -0.376381 0.180744 0.908663
vn -0.325634 0.525289 -0.786151
vn -0.325634 0.525289 -0.786151
vn -0.325634 0.525289 -0.786151
vn -0.325634 0.525289 -0.786151
vn -0.786151 0.525289 -0.325634
vn -0.786151 0.525289 -0.325634
vn -0.786151 0.525289 -0.325634
vn -0.786151 0.525289 -0.325634
vn -0.786151 0.525289 0.325634
vn -0.786151 0.525289 0.325634
vn -0.786151 0.525289 0.325634
vn -0.786151 0.525289 0.325634
vn -0.325634 0.525289 0.786151
vn -0.325634 0.525289 0.786151
vn -0.325634 0.525289 0.786151
vn -0.325634 0.525289 0.786151
vn -0.224263 0.810291 -0.541419
vn -0.224263 0.810291 -0.541419
vn -0.224263 0.810291 -0.541419
vn -0.224263 0.810291 -0.541419
vn -0.541419 0.810291 -0.224264
vn -0.541419 0.810291 -0.224263
vn -0.541419 0.810291 -0.224263
vn -0.541419 0.810291 -0.224263
vn -0.541419 0.810291 0.224263
vn -0.541419 0.810291 0.224263
vn -0.541419 0.810291 0.224263
vn -0.541419 0.810291 0.224263
vn -0.224263 0.810291 0.541419
vn -0.224263 0.810291 0.541419
vn -0.224263 0.810291 0.541419
vn -0.224263 0.810291 0.541419
vn -0.080546 -0.977599 -0.194457
vn -0.080546 -0.977599 -0.194457
vn -0.080546 -0.977599 -0.194457
vn -0.194456 -0.977599 -0.080547
vn -0.194456 -0.977599 -0.080547
vn -0.194456 -0.977599 -0.080547
vn -0.194456 -0.977599 0.080546
vn -0.194456 -0.977599 0.080546
vn -0.194456 -0.977599 0.080546
vn -0.080546 -0.977599 0.194457
vn -0.080547 -0.977599 0.194457
vn -0.080546 -0.977599 0.194457
vn -0.080546 0.977599 -0.194457
vn -0.080546 0.977599 -0.194457
vn -0.080546 0.977599 -0.194457
vn -0.194456 0.977599 -0.080546
vn -0.194456 0.977599 -0.080546
vn -0.194456 0.977599 -0.080546
vn -0.194456 0.977599 0.080547
vn -0.194456 0.977599 0.080547
vn -0.194456 0.977599 0.080547
vn -0.080547 0.977599 0.194457
vn -0.080546 0.977599 0.194457
vn -0.080546 0.977599 0.194457
f 38/44/121 39/45/122 43/49/123
f 43/49/123 39/45/122 44/50/124
f 39/45/125 40/46/126 44/50/127
f 44/50/127 40/46/126 45/51/128
f 40/46/129 41/47/130 45/51/131
f 45/51/131 41/47/130 46/52/132
f 41/47/133 42/48/134 46/52/135
f 46/52/135 42/48/134 47/53/136
f 43/49/137 44/50/138 48/54/139
f 48/54/139 44/50/138 49/55/140
f 44/50/141 45/51/142 49/55/143
f 49/55/143 45/51/142 50/56/144
f 45/51/145 46/52/146 50/56/147
f 50/56/147 46/52/146 51/57/148
f 46/52/149 47/53/150 51/57/151
f 51/57/151 47/53/150 52/58/152
f 48/54/153 49/55/154 53/59/155
f 53/59/155 49/55/154 54/60/156
f 49/55/157 50/56/158 54/60/159
f 54/60/159 50/56/158 55/61/160
f 50/56/161 51/57/162 55/61/163
f 55/61/163 51/57/162 56/62/164
f 51/57/165 52/58/166 56/62/167
f 56/62/167 52/58/166 57/63/168
usemtl lambert2SG
f 53/59/169 54/60/170 58/64/171
f 58/64/171 54/60/170 59/65/172
f 54/60/173 55/61/174 59/65/175
f 59/65/175 55/61/174 60/66/176
f 55/61/177 56/62/178 60/66/179
f 60/66/179 56/62/178 61/67/180
f 56/62/181 57/63/182 61/67/183
f 61/67/183 57/63/182 62/68/184
f 58/64/185 59/65/186 63/69/187
f 63/69/187 59/65/186 64/70/188
f 59/65/189 60/66/190 64/70/191
f 64/70/191 60/66/190 65/71/192
f 60/66/193 61/67/194 65/71/195
f 65/71/195 61/67/194 66/72/196
f 61/67/197 62/68/198 66/72/199
f 66/72/199 62/68/198 67/73/200
f 63/69/201 64/70/202 68/74/203
f 68/74/203 64/70/202 69/75/204
f 64/70/205 65/71/206 69/75/207
f 69/75/207 65/71/206 70/76/208
f 65/71/209 66/72/210 70/76/211
f 70/76/211 66/72/210 71/77/212
f 66/72/213 67/73/214 71/77/215
f 71/77/215 67/73/214 72/78/216
usemtl lambert3SG
f 39/45/217 38/44/218 73/79/219
f 40/46/220 39/45/221 73/80/222
f 41/47/223 40/46/224 73/81/225
f 42/48/226 41/47/227 73/82/228
usemtl lambert2SG
f 68/74/229 69/75/230 74/83/231
f 69/75/232 70/76/233 74/84/234
f 70/76/235 71/77/236 74/85/237
f 71/77/238 72/78/239 74/86/240
